<svg width="91" height="27" viewBox="0 0 91 27" fill="none" xmlns="http://www.w3.org/2000/svg">
<path d="M17.8026 26.4808H0V0.519231H5.46636V21.6593H17.8026V26.4808Z" fill="#0DBC91"/>
<path d="M15.8488 13.5C15.8488 11.3736 16.1197 9.46978 16.6614 7.78846C17.2031 6.10714 17.9787 4.6978 18.9883 3.56044C20.0224 2.39835 21.2782 1.52061 22.7556 0.927199C24.233 0.309066 25.9074 0 27.7788 0C29.7733 0 31.5092 0.333791 32.9866 1.00137C34.4886 1.64423 35.7321 2.55907 36.717 3.74588C37.7266 4.93269 38.4776 6.3544 38.97 8.01099C39.4871 9.66758 39.7457 11.4973 39.7457 13.5C39.7457 15.6264 39.4625 17.5302 38.8962 19.2115C38.3545 20.8929 37.5665 22.3146 36.5323 23.4767C35.4982 24.614 34.2424 25.4918 32.765 26.1099C31.2876 26.7033 29.6255 27 27.7788 27C25.7843 27 24.036 26.6786 22.534 26.0357C21.0566 25.3681 19.8132 24.4409 18.8036 23.2541C17.8187 22.0673 17.08 20.6456 16.5875 18.989C16.095 17.3324 15.8488 15.5027 15.8488 13.5ZM21.6476 13.5C21.6476 14.7857 21.7707 15.9602 22.0169 17.0234C22.2632 18.0865 22.6325 19.0014 23.125 19.7679C23.6174 20.5343 24.2453 21.1277 25.0087 21.5481C25.7966 21.9684 26.72 22.1786 27.7788 22.1786C29.724 22.1786 31.2383 21.511 32.3218 20.1758C33.4052 18.8407 33.9469 16.6154 33.9469 13.5C33.9469 12.2637 33.8361 11.114 33.6145 10.0508C33.3929 8.98764 33.0235 8.0728 32.5064 7.30632C32.014 6.51511 31.3738 5.90934 30.5858 5.48901C29.8225 5.04396 28.8868 4.82143 27.7788 4.82143C25.8582 4.82143 24.3561 5.51374 23.2727 6.89835C22.1893 8.28297 21.6476 10.4835 21.6476 13.5Z" fill="#0DBC91"/>
<path d="M53.4323 12.8324H63.9957V24.478C63.4294 24.9231 62.8015 25.3063 62.112 25.6277C61.4472 25.9245 60.7331 26.1841 59.9698 26.4066C59.2311 26.6044 58.4678 26.7527 57.6799 26.8516C56.8919 26.9506 56.1163 27 55.353 27C53.5801 27 51.918 26.7404 50.3667 26.2212C48.8401 25.7019 47.4981 24.8984 46.3408 23.8104C45.2082 22.6978 44.3094 21.2885 43.6446 19.5824C43.0044 17.8764 42.6843 15.8489 42.6843 13.5C42.6843 11.0522 43.0783 8.97528 43.8662 7.26923C44.6542 5.53846 45.676 4.14148 46.9318 3.0783C48.2122 1.99039 49.6281 1.21154 51.1793 0.74176C52.7552 0.247253 54.3188 0 55.87 0C57.4706 0 58.8741 0.123626 60.0806 0.370879C61.3118 0.593406 62.2721 0.815934 62.9615 1.03846L61.8166 5.60028C61.1517 5.37775 60.4007 5.19231 59.5635 5.04396C58.7263 4.8956 57.6799 4.82143 56.4241 4.82143C55.2668 4.82143 54.208 4.98214 53.2477 5.30357C52.2874 5.60028 51.4502 6.09478 50.7361 6.78709C50.022 7.4794 49.468 8.38187 49.074 9.49451C48.6801 10.6071 48.4831 11.9547 48.4831 13.5371C48.4831 15.0701 48.6801 16.3805 49.074 17.4684C49.468 18.5563 49.9974 19.4588 50.6622 20.1758C51.3517 20.8681 52.1396 21.375 53.0261 21.6964C53.9125 22.0179 54.8482 22.1786 55.8331 22.1786C56.4979 22.1786 57.1628 22.1044 57.8276 21.956C58.517 21.8077 59.0957 21.5728 59.5635 21.2514V16.7637L53.4323 16.1703V12.8324Z" fill="#0DBC91"/>
<path d="M67.1031 13.5C67.1031 11.3736 67.374 9.46978 67.9157 7.78846C68.4574 6.10714 69.2331 4.6978 70.2426 3.56044C71.2768 2.39835 72.5326 1.52061 74.01 0.927199C75.4874 0.309066 77.1617 0 79.0331 0C81.0276 0 82.7635 0.333791 84.2409 1.00137C85.7429 1.64423 86.9864 2.55907 87.9713 3.74588C88.9809 4.93269 89.7319 6.3544 90.2244 8.01099C90.7415 9.66758 91 11.4973 91 13.5C91 15.6264 90.7168 17.5302 90.1505 19.2115C89.6088 20.8929 88.8208 22.3146 87.7867 23.4767C86.7525 24.614 85.4967 25.4918 84.0193 26.1099C82.5419 26.7033 80.8798 27 79.0331 27C77.0386 27 75.2904 26.6786 73.7884 26.0357C72.311 25.3681 71.0675 24.4409 70.0579 23.2541C69.073 22.0673 68.3343 20.6456 67.8418 18.989C67.3494 17.3324 67.1031 15.5027 67.1031 13.5ZM72.9019 13.5C72.9019 14.7857 73.025 15.9602 73.2713 17.0234C73.5175 18.0865 73.8868 19.0014 74.3793 19.7679C74.8718 20.5343 75.4997 21.1277 76.263 21.5481C77.0509 21.9684 77.9743 22.1786 79.0331 22.1786C80.9783 22.1786 82.4927 21.511 83.5761 20.1758C84.6595 18.8407 85.2012 16.6154 85.2012 13.5C85.2012 12.2637 85.0904 11.114 84.8688 10.0508C84.6472 8.98764 84.2779 8.0728 83.7608 7.30632C83.2683 6.51511 82.6281 5.90934 81.8402 5.48901C81.0768 5.04396 80.1412 4.82143 79.0331 4.82143C77.1125 4.82143 75.6105 5.51374 74.527 6.89835C73.4436 8.28297 72.9019 10.4835 72.9019 13.5Z" fill="#0DBC91"/>
</svg>
